<?xml version="1.0" encoding="utf-8"?>
<!-- Generator: Adobe Illustrator 21.1.0, SVG Export Plug-In . SVG Version: 6.00 Build 0)  -->
<svg version="1.1" id="Layer_1" xmlns="http://www.w3.org/2000/svg" xmlns:xlink="http://www.w3.org/1999/xlink" x="0px" y="0px"
	 viewBox="0 0 2551.2 2551.2" style="enable-background:new 0 0 2551.2 2551.2;" xml:space="preserve">
<style type="text/css">
	.st0{fill:#3FA06B;}
</style>
<path class="st0" d="M1299.2,1210.4c0-94.1-3.9-188.5,1.3-282.3c3.8-68.4,33.2-130.3,81.9-180.3C1512.3,614.5,1643,481.9,1773.3,349
	c24.9-25.4,49.7-50.9,74.7-76.3c3.7-3.7,7.6-7.2,11.5-10.7c1.7,0.3,3.4,0.6,5.2,0.9c0,30.4,0,60.8,0,91.2c0.1,52,0.7,104,0.3,156
	c-0.7,84.8-30.1,158.5-89.3,219.2c-153.3,157.1-307.3,313.6-460.9,470.5c-4.1,4.2-6.9,9.7-10.3,14.7
	C1302.7,1213.1,1300.9,1211.8,1299.2,1210.4z"/>
<path class="st0" d="M2272.2,678.9c-33.1,34.1-66.1,68.2-99.3,102.1c-123.4,125.9-246.7,251.9-370.6,377.4
	c-60.9,61.7-134.8,93.8-222,93.2c-75.5-0.5-151.1-1.4-226.6-2.1c-3.7,0-7.4-0.6-13.3-1.2c3.8-4.7,6.1-8.1,8.9-11
	c156.8-159.9,312.9-320.4,470.8-479.2c55.4-55.8,125.6-83.3,204.2-84.9c82-1.7,164.1-0.4,246.2-0.4
	C2271,674.9,2271.6,676.9,2272.2,678.9z"/>
<path class="st0" d="M1861.6,2289.5c-29-28-57.5-54.3-84.6-81.9c-130.5-132.8-260.8-265.7-390.7-399c-57.5-59-86.7-130.8-87.6-213
	c-0.9-81.6,0.3-163.2,0.5-244.7c0-3.2,0-6.4,3.6-12.2c13.3,14.1,26.3,28.4,39.8,42.2c145.1,148.3,290.6,296.3,435.3,445
	c56.6,58.2,85.6,129.3,86.6,210.2c1,81.5-1.3,163.1-2.2,244.6C1862.4,2283.4,1861.9,2286.1,1861.6,2289.5z"/>
<path class="st0" d="M1207.9,1248.5c-23.9,1.1-44,2.6-64,2.8c-61.3,0.4-122.7,1-184,0.3c-80.8-0.9-151.3-29.8-208-87
	C594.7,1005.9,438.7,846,282.2,686.6c-2.6-2.6-5-5.4-10.6-11.7c38.6,0,73.4,0.3,108.2-0.1c44.9-0.4,89.7-2.1,134.6-1.8
	c85.5,0.5,159.4,30.3,219.6,91.4c154.4,156.9,308.4,314.2,462.5,471.3C1199.4,1238.9,1202.2,1242.2,1207.9,1248.5z"/>
<path class="st0" d="M1246.5,1213.4c-84.7-86.3-167-170.4-249.4-254.3C922,882.5,846,806.8,771.8,729.2
	c-64.4-67.3-92.9-148.5-89.1-242.1c2.8-68.9,1.5-137.9,2-206.8c0-5.8,0-11.7,0-20.3c4.8,3.7,7.4,5.3,9.5,7.5
	c156.8,159.8,314.1,319,470,479.7c57.6,59.4,85.3,133.1,85.7,215.7c0.4,80.4-1.6,160.8-2.6,241.2
	C1247.4,1206.2,1247,1208.2,1246.5,1213.4z"/>
<path class="st0" d="M276.7,1872.9c20.1-20.8,40-41.7,60.2-62.3c137.3-139.9,274.4-279.9,412-419.4c59.4-60.2,132.4-90,216.6-90.4
	c77.2-0.4,154.3,1.5,231.5,2.5c3.1,0,6.3,0.4,11.5,0.8c-3.2,3.8-5,6.3-7.1,8.5c-153,155.9-306.4,311.4-459,467.7
	c-65.5,67.1-143.7,100.8-237.8,99.3c-75.4-1.2-150.9-0.2-226.4-0.2C277.8,1877.1,277.2,1875,276.7,1872.9z"/>
<path class="st0" d="M2274.1,1875.6c-11.8,0.5-20.4,1.1-29,1.2c-75.5,0.8-151.1,3.2-226.6,1.9c-74.5-1.3-141.7-27.9-194.1-80.3
	c-160.1-160.4-317.9-323.1-476.6-484.9c-2.2-2.3-4.2-4.8-7.6-8.8c4.1-0.7,6.5-1.5,9-1.6c83.2-1,166.5-4.5,249.5-2
	c73.4,2.3,139.7,30,192,82c106.4,105.7,210.5,213.7,315.5,320.9C2161.4,1760.3,2216.4,1816.7,2274.1,1875.6z"/>
<path class="st0" d="M683.4,2294.7c0-76.9,2.2-150.2-0.7-223.3c-2.1-52.6,5-102.4,25.1-150.5c14.9-35.6,34.8-67.8,62.2-95.7
	c153.5-156.1,306.5-312.6,459.7-469c4.6-4.6,8.5-9.8,15.2-17.6c1.4,7.7,2.5,11,2.5,14.3c1,78.2,2.9,156.5,2.6,234.7
	c-0.3,86.9-31,162.5-91.9,224.8c-147.7,151-295.9,301.6-443.9,452.3C705.4,2273.7,696.2,2282.3,683.4,2294.7z"/>
<path class="st0" d="M1638.2,39.6c0,24.5-0.3,49.1,0.1,73.6c0.8,56.9,3.5,113.7,2.5,170.6c-1.4,85.9-30.8,161.6-91.3,223.6
	c-79.4,81.5-159.6,162.3-239.3,243.5c-3.7,3.8-6,9-8.9,13.6c-1.5-1.1-3.1-2.2-4.6-3.3c-0.2-4.1-0.6-8.3-0.6-12.4
	c-0.3-80.4-1.5-160.9-0.5-241.3c1.1-82.1,30.2-153.9,87.5-213c78.8-81.4,158.4-161.9,237.6-242.9c4.5-4.6,8.2-10.1,12.3-15.1
	C1634.7,37.5,1636.4,38.5,1638.2,39.6z"/>
<path class="st0" d="M1250.6,757.4c-23.8-22-49.1-43.8-72.6-67.4c-62.2-62.5-124.3-125-185-188.8c-54.6-57.4-82.8-127.1-84.7-206.1
	c-1.6-67.8-0.3-135.8,0.2-203.6c0.1-17.3,2.1-34.6,3.3-54.1c20,19.8,38.8,37.8,57,56.3c65.5,66.8,131.7,133.1,196.1,201
	c63.3,66.8,91.3,147,87.5,239.4c-2.7,66.7-1.4,133.5-1.8,200.3C1250.5,743,1250.6,751.7,1250.6,757.4z"/>
<path class="st0" d="M1638,2516.2c-10.9-10.3-20.7-18.9-29.8-28.1c-76.3-77.7-153.2-154.8-228.6-233.5
	c-53.1-55.4-81.6-123.3-83.7-199.7c-2.4-85.9-0.1-171.8,0.1-257.8c0-2,0.5-4.1,1.1-9.4c14.7,15,27.5,28.2,40.3,41.3
	c71.9,73.6,144.7,146.3,215.6,220.9c64.8,68.2,91.3,150.4,86.9,244.4c-3.1,65.5-1.4,131.3-1.9,197
	C1637.9,2499,1638,2506.7,1638,2516.2z"/>
<path class="st0" d="M1781.1,1247.7c16.5-15.9,33.4-31.4,49.5-47.8c68.8-69.8,136.6-140.5,206.1-209.5
	c57.6-57.2,128.3-86.7,209.5-87.3c77.1-0.5,154.3,1.6,231.4,2.5c4.3,0.1,8.6,0.4,15.2,0.7c-3,3.7-4.6,6.2-6.7,8.3
	c-82.1,83.6-163.8,167.5-246.5,250.5c-59.1,59.3-131.5,89.3-215.2,89.5c-77.7,0.2-155.4-1.5-233.1-2.4c-2.7,0-5.3-0.4-8-0.6
	C1782.7,1250.3,1781.9,1249,1781.1,1247.7z"/>
<path class="st0" d="M2488.5,1649c-30.4,0-60.9,0-91.3,0c-52.5,0.1-105.1,1-157.6,0.1c-74.8-1.3-141.5-27.6-194.5-79.1
	c-88.7-86.1-173.8-176-260.4-264.2c-0.7-0.8-1.2-1.8-2.6-4.2c4.6-0.6,8.4-1.5,12.3-1.5c75.5-1,151-2.9,226.4-2.7
	c85.9,0.3,160.4,30.5,221.1,91.8c79.3,80.1,158,160.9,236.9,241.4c3.8,3.9,7.2,8,10.8,12C2489.2,1644.8,2488.9,1646.9,2488.5,1649z"
	/>
<path class="st0" d="M61.1,1645.5c35.3-36.3,68-70.1,100.8-103.7c52.1-53.2,103.3-107.2,156.6-159.1
	c54.6-53.2,121.8-82.5,197.5-84.8c82-2.4,164.1,1.2,246.2,2.2c2.6,0,5.2,0.5,10.9,1.1c-17.1,17.9-32.2,34-47.7,49.8
	c-70.1,71.5-139.3,144-210.9,214c-55.2,54-123.1,83.2-200.9,83.8c-79.9,0.7-159.7-1.4-239.6-2.4C71,1646.6,67.8,1646.1,61.1,1645.5z
	"/>
<path class="st0" d="M1250.9,1793.7c0,32.6-0.3,65.3,0.1,97.9c0.6,48.1,2.7,96.2,2.2,144.3c-0.8,82.3-26.3,156.7-83.3,216.7
	c-82.1,86.5-166.7,170.6-250.3,255.7c-1.8,1.8-4,3.3-7.8,6.4c-1.3-19.7-3.2-37.5-3.4-55.2c-0.5-66.7-1.7-133.5-0.3-200.2
	c1.7-80.8,30.5-151.8,86.8-210c79.5-82.2,160.1-163.3,240-245.1c4-4.1,5.7-10.5,8.4-15.8C1245.9,1790.1,1248.4,1791.9,1250.9,1793.7
	z"/>
<path class="st0" d="M60.2,905.5c19.5,0,34.6,0.2,49.8,0c67.3-0.8,134.6-3.5,201.8-2.2c81.1,1.5,151.3,32.1,208.5,89.8
	c78.6,79.2,156.3,159.4,234.5,239c5.3,5.4,11.4,10.1,20.1,17.6c-7.8,1.4-11.1,2.5-14.4,2.6c-78.2,1-156.4,2.9-234.6,2.4
	c-81.3-0.5-152.1-30.2-209.5-87.3c-83-82.5-164.1-167.1-246-250.7C68.1,914.2,66,911.8,60.2,905.5z"/>
</svg>
